<svg xmlns="http://www.w3.org/2000/svg" xmlns:xlink="http://www.w3.org/1999/xlink" width="267.041" height="370.817" viewBox="0 0 267.041 370.817"><defs><linearGradient id="a" x1="0.5" x2="0.5" y2="1" gradientUnits="objectBoundingBox"><stop offset="0" stop-color="#0086ff"/><stop offset="1" stop-color="#03356c"/></linearGradient><linearGradient id="b" x1="-0.388" y1="0.72" x2="0.5" y2="1" gradientUnits="objectBoundingBox"><stop offset="0" stop-color="#d9ff4d"/><stop offset="1" stop-color="#f3ffc6"/></linearGradient></defs><g transform="translate(-217.479 -1027.008)"><path d="M52.667,33A163.551,163.551,0,0,1,72.086,19.409C82.685,13.179,83.5,12.9,93.451,7.88s8.571-1.336,18.442-8.537S128.14-15.747,133.738-17.81s11.31-2.929,20.363,1.712S170.758-2.16,170.758-2.16,160.523-4.616,149.681,9.058,142.133,42.585,121.82,54.12c-7.693,4.368-24.512,10.916-30.066,16.852a14.942,14.942,0,0,0,0,20.607c6.022,6.367,17.808,10.163,18.576,13.289.512,2.075-7.376,1.322-14.171,1.341a33.9,33.9,0,0,0-9.575,2.106s7.251-2.164,3.064-9.161c-1.759-2.939-7.16-3.342-10.916-7.574C74.96,87.322,72.9,79.56,72.9,79.56c-6.368,2.563-13.405,0-13.405,0s4.235-7.439-17.235-1.62S-19.758,97.533-19.758,97.533l-2.946-2.5-13.579,4.125,10.423-8.967-10.423,1.392s13.368-8.22,28.8-15.858c10.932-5.411,23.725-9.974,29.209-13.768,3.611-2.5,4.513-1.3,2.987-2.489-1.03-1.392-11.7-1.992-11.7-1.992Z" transform="translate(253.763 1046.485)" fill="url(#a)"/><g transform="translate(484.521 1397.825) rotate(180)"><ellipse cx="25.824" cy="42.938" rx="25.824" ry="42.938" transform="translate(88.909 196.717) rotate(150)" fill="url(#b)"/><ellipse cx="25.824" cy="42.938" rx="25.824" ry="42.938" transform="translate(167.5 55.079) rotate(-30)" fill="url(#b)"/><ellipse cx="26.26" cy="42.211" rx="26.26" ry="42.211" transform="translate(45.484 126.815) rotate(-150)" fill="url(#b)"/><ellipse cx="26.269" cy="42.196" rx="26.269" ry="42.196" transform="translate(211.831 126.9) rotate(30)" fill="url(#b)"/><ellipse cx="26.255" cy="42.227" rx="26.255" ry="42.227" transform="translate(86.617 247.025) rotate(-90)" fill="url(#b)"/><ellipse cx="26.261" cy="42.218" rx="26.261" ry="42.218" transform="translate(173.645) rotate(90)" fill="url(#b)"/></g></g></svg>