<svg xmlns="http://www.w3.org/2000/svg" width="269" height="65.161" viewBox="0 0 269 65.161"><text transform="translate(212 28.184)" fill="#ddd" font-size="18" font-family="AvenirNext-Regular, Avenir Next"><tspan x="0" y="0">.comm</tspan></text><g transform="translate(73.12 11.58)"><text transform="translate(0 31)" fill="#fff" font-size="31" font-family="AvenirNext-Medium, Avenir Next" font-weight="500"><tspan x="0" y="0">paris</tspan><tspan y="0" font-family="AvenirNext-Bold, Avenir Next" font-weight="700">DOT</tspan></text></g><path d="M25.2,25.3V70.081H69.981V25.3ZM47.59,69a21.3,21.3,0,1,1,21.3-21.3A21.29,21.29,0,0,1,47.59,69Z" transform="translate(-15.07 -15.13)" fill="#fff"/><g transform="translate(0.241)"><path d="M.6,0V8.482H4.861A4.255,4.255,0,0,1,.6,4.261a4.261,4.261,0,1,1,8.522,0A4.238,4.238,0,0,1,4.861,8.522H9.122V0Z" transform="translate(-0.6)" fill="#fff"/><path d="M6.655,3A3.055,3.055,0,1,0,9.71,6.055,3.054,3.054,0,0,0,6.655,3Z" transform="translate(-2.394 -1.794)" fill="#fff"/></g><g transform="translate(0 11.336)"><path d="M0,28.2v8.482H4.261a4.241,4.241,0,1,1,0-8.482,4.261,4.261,0,0,1,0,8.522H8.522V28.2Z" transform="translate(0 -28.2)" fill="#fff"/><path d="M6.055,31.1A3.055,3.055,0,1,0,9.11,34.155,3.054,3.054,0,0,0,6.055,31.1Z" transform="translate(-1.794 -29.934)" fill="#fff"/><path d="M0,64.822H4.261a4.261,4.261,0,1,1,0-8.522,4.261,4.261,0,1,1,0,8.522H8.522V56.34H0Z" transform="translate(0 -45.004)" fill="#fff"/><path d="M6.055,59.3A3.055,3.055,0,1,0,9.11,62.355,3.054,3.054,0,0,0,6.055,59.3Z" transform="translate(-1.794 -46.798)" fill="#fff"/><path d="M0,93.022H4.261a4.261,4.261,0,1,1,4.261-4.261,4.263,4.263,0,0,1-4.261,4.261H8.522V84.54H0Z" transform="translate(0 -61.869)" fill="#fff"/><path d="M6.055,87.5A3.055,3.055,0,1,0,9.11,90.555,3.054,3.054,0,0,0,6.055,87.5Z" transform="translate(-1.794 -63.663)" fill="#fff"/><path d="M0,121.182H4.261a4.241,4.241,0,1,1,0-8.482,4.261,4.261,0,0,1,0,8.522H8.522V112.74H0v8.442Z" transform="translate(0 -78.733)" fill="#fff"/><path d="M6.055,115.7a3.055,3.055,0,1,0,3.055,3.055A3.054,3.054,0,0,0,6.055,115.7Z" transform="translate(-1.794 -80.527)" fill="#fff"/></g><g transform="translate(22.752)"><path d="M56.6,0V4.261a4.261,4.261,0,1,1,4.261,4.261A4.263,4.263,0,0,1,56.6,4.261V8.522h8.482V0Z" transform="translate(-56.6)" fill="#fff"/><path d="M62.655,9.11A3.055,3.055,0,1,0,59.6,6.055,3.054,3.054,0,0,0,62.655,9.11Z" transform="translate(-58.394 -1.794)" fill="#fff"/></g><g transform="translate(11.497)"><path d="M28.6,0V4.261a4.261,4.261,0,1,1,4.261,4.261A4.263,4.263,0,0,1,28.6,4.261V8.522h8.482V0Z" transform="translate(-28.6)" fill="#fff"/><path d="M34.655,9.11A3.055,3.055,0,1,0,31.6,6.055,3.054,3.054,0,0,0,34.655,9.11Z" transform="translate(-30.394 -1.794)" fill="#fff"/></g><g transform="translate(0.241 56.599)"><path d="M.6,149.322H4.861a4.261,4.261,0,1,1,4.261-4.261,4.263,4.263,0,0,1-4.261,4.261H9.122V140.84H.6Z" transform="translate(-0.6 -140.8)" fill="#fff"/><path d="M6.655,143.8a3.055,3.055,0,1,0,3.055,3.055A3.054,3.054,0,0,0,6.655,143.8Z" transform="translate(-2.394 -142.594)" fill="#fff"/><path d="M112.6,140.9v4.261a4.261,4.261,0,1,1,4.261,4.261,4.263,4.263,0,0,1-4.261-4.261v4.261h8.482V140.94H112.6Z" transform="translate(-67.578 -140.86)" fill="#fff"/><path d="M118.655,149.91a3.055,3.055,0,1,0-3.055-3.055,3.054,3.054,0,0,0,3.055,3.055Z" transform="translate(-69.372 -142.594)" fill="#fff"/><path d="M84.6,145.061a4.261,4.261,0,1,1,4.261,4.261,4.263,4.263,0,0,1-4.261-4.261v4.261h8.482V140.84H84.6v4.221Z" transform="translate(-50.834 -140.8)" fill="#fff"/><path d="M90.655,149.91a3.055,3.055,0,1,0-3.055-3.055A3.054,3.054,0,0,0,90.655,149.91Z" transform="translate(-52.628 -142.594)" fill="#fff"/><path d="M56.6,145.061a4.261,4.261,0,1,1,4.261,4.261,4.263,4.263,0,0,1-4.261-4.261v4.261h8.482V140.84H56.6v4.221Z" transform="translate(-34.089 -140.8)" fill="#fff"/><path d="M62.655,149.91a3.055,3.055,0,1,0-3.055-3.055A3.054,3.054,0,0,0,62.655,149.91Z" transform="translate(-35.883 -142.594)" fill="#fff"/><path d="M28.6,145.061a4.261,4.261,0,1,1,4.261,4.261,4.263,4.263,0,0,1-4.261-4.261v4.261h8.482V140.84H28.6v4.221Z" transform="translate(-17.345 -140.8)" fill="#fff"/><path d="M34.655,149.91a3.055,3.055,0,1,0-3.055-3.055A3.054,3.054,0,0,0,34.655,149.91Z" transform="translate(-19.139 -142.594)" fill="#fff"/></g><g transform="translate(34.007)"><path d="M112.6,4.261a4.261,4.261,0,1,1,4.261,4.261A4.263,4.263,0,0,1,112.6,4.261V8.522h8.482V0H112.6V4.261Z" transform="translate(-101.345)" fill="#fff"/><path d="M118.655,9.11A3.055,3.055,0,1,0,115.6,6.055a3.054,3.054,0,0,0,3.055,3.055Z" transform="translate(-103.139 -1.794)" fill="#fff"/><path d="M84.6,4.261a4.261,4.261,0,1,1,4.261,4.261A4.263,4.263,0,0,1,84.6,4.261V8.522h8.482V0H84.6Z" transform="translate(-84.6)" fill="#fff"/><path d="M90.655,9.11A3.055,3.055,0,1,0,87.6,6.055,3.054,3.054,0,0,0,90.655,9.11Z" transform="translate(-86.394 -1.794)" fill="#fff"/><path d="M140.6,0V8.482h4.261a4.241,4.241,0,1,1,0-8.482,4.261,4.261,0,1,1,0,8.522h4.261V0H140.64Z" transform="translate(-118.089)" fill="#fff"/><path d="M146.655,3a3.055,3.055,0,1,0,3.055,3.055A3.054,3.054,0,0,0,146.655,3Z" transform="translate(-119.883 -1.794)" fill="#fff"/></g><g transform="translate(56.277 11.336)"><path d="M140,32.461a4.261,4.261,0,1,1,4.261,4.261h4.261V28.2H140.04v8.482H144.3a4.263,4.263,0,0,1-4.261-4.261Z" transform="translate(-140 -28.2)" fill="#fff"/><path d="M146.055,31.1a3.055,3.055,0,1,0,3.055,3.055A3.054,3.054,0,0,0,146.055,31.1Z" transform="translate(-141.794 -29.934)" fill="#fff"/><path d="M140,60.561a4.261,4.261,0,1,1,4.261,4.261h4.261V56.34H140.04v8.482H144.3a4.263,4.263,0,0,1-4.261-4.261Z" transform="translate(-140 -45.004)" fill="#fff"/><path d="M146.055,59.3a3.055,3.055,0,1,0,3.055,3.055A3.054,3.054,0,0,0,146.055,59.3Z" transform="translate(-141.794 -46.798)" fill="#fff"/><path d="M140,88.761a4.261,4.261,0,1,1,4.261,4.261h4.261V84.54H140.04v8.482H144.3a4.263,4.263,0,0,1-4.261-4.261Z" transform="translate(-140 -61.869)" fill="#fff"/><path d="M146.055,87.5a3.055,3.055,0,1,0,3.055,3.055A3.054,3.054,0,0,0,146.055,87.5Z" transform="translate(-141.794 -63.663)" fill="#fff"/><path d="M140,116.961a4.261,4.261,0,1,1,4.261,4.261h4.261V112.74H140.04v8.482H144.3a4.263,4.263,0,0,1-4.261-4.261Z" transform="translate(-140 -78.733)" fill="#fff"/><path d="M146.055,115.7a3.055,3.055,0,1,0,3.055,3.055A3.054,3.054,0,0,0,146.055,115.7Z" transform="translate(-141.794 -80.527)" fill="#fff"/><path d="M140.6,140.84v8.482h4.261a4.261,4.261,0,1,1,4.261-4.261,4.263,4.263,0,0,1-4.261,4.261h4.261V140.84H140.6Z" transform="translate(-140.359 -95.537)" fill="#fff"/><path d="M146.655,143.8a3.055,3.055,0,1,0,3.055,3.055A3.054,3.054,0,0,0,146.655,143.8Z" transform="translate(-142.153 -97.331)" fill="#fff"/></g><g transform="translate(16.657 16.389)"><ellipse cx="5.547" cy="3.216" rx="5.547" ry="3.216" transform="translate(14.532 26.736) rotate(-25)" fill="#fff"/><ellipse cx="5.547" cy="3.216" rx="5.547" ry="3.216" transform="translate(4.257 4.689) rotate(-25)" fill="#fff"/><ellipse cx="3.216" cy="5.547" rx="3.216" ry="5.547" transform="matrix(0.574, -0.819, 0.819, 0.574, 16.375, 5.731)" fill="#fff"/><ellipse cx="5.547" cy="3.216" rx="5.547" ry="3.216" transform="translate(0 20.47) rotate(-85)" fill="#fff"/><ellipse cx="5.547" cy="3.216" rx="5.547" ry="3.216" transform="translate(24.257 22.597) rotate(-85)" fill="#fff"/><ellipse cx="3.216" cy="5.547" rx="3.216" ry="5.547" transform="matrix(0.574, -0.819, 0.819, 0.574, 2.493, 25.689)" fill="#fff"/></g></svg>