<svg xmlns="http://www.w3.org/2000/svg" width="50.718" height="51.161" viewBox="0 0 50.718 51.161"><defs><style>.a{fill:#fff;}</style></defs><path class="a" d="M25.2,25.3V60.459H60.119V25.3ZM42.66,59.607A16.728,16.728,0,1,1,59.273,42.88,16.659,16.659,0,0,1,42.66,59.607Z" transform="translate(-17.301 -17.315)"/><g transform="translate(0.188)"><path class="a" d="M.6,0V6.659H3.923A3.33,3.33,0,1,1,7.245,3.345,3.316,3.316,0,0,1,3.923,6.691H7.245V0Z" transform="translate(-0.6)"/><path class="a" d="M5.982,3A2.4,2.4,0,1,0,8.365,5.4,2.389,2.389,0,0,0,5.982,3Z" transform="translate(-2.66 -2.053)"/></g><path class="a" d="M0,28.2v6.659H3.323a3.33,3.33,0,1,1,0,.032H6.645V28.2Z" transform="translate(0 -19.3)"/><path class="a" d="M5.382,31.1a2.4,2.4,0,1,0,2.382,2.4A2.389,2.389,0,0,0,5.382,31.1Z" transform="translate(-2.061 -21.284)"/><path class="a" d="M0,62.991H3.323a3.346,3.346,0,1,1,3.323-3.346,3.316,3.316,0,0,1-3.323,3.346H6.645V56.332H0Z" transform="translate(0 -38.531)"/><path class="a" d="M5.382,59.3a2.4,2.4,0,1,0,2.382,2.4A2.389,2.389,0,0,0,5.382,59.3Z" transform="translate(-2.061 -40.584)"/><path class="a" d="M0,91.191H3.323a3.346,3.346,0,1,1,3.323-3.346,3.336,3.336,0,0,1-3.323,3.346H6.645V84.532H0Z" transform="translate(0 -57.831)"/><path class="a" d="M5.382,87.5a2.4,2.4,0,1,0,2.382,2.4A2.389,2.389,0,0,0,5.382,87.5Z" transform="translate(-2.061 -59.884)"/><path class="a" d="M0,119.359H3.323a3.33,3.33,0,1,1,0,.032H6.645v-6.659H0v6.628Z" transform="translate(0 -77.13)"/><path class="a" d="M5.382,115.7a2.4,2.4,0,1,0,2.382,2.4A2.389,2.389,0,0,0,5.382,115.7Z" transform="translate(-2.061 -79.184)"/><g transform="translate(17.742)"><path class="a" d="M56.6,0V3.345a3.323,3.323,0,1,1,6.645,0,3.323,3.323,0,1,1-6.645,0V6.691h6.614V0Z" transform="translate(-56.6)"/><path class="a" d="M61.982,7.8A2.4,2.4,0,1,0,59.6,5.4,2.389,2.389,0,0,0,61.982,7.8Z" transform="translate(-58.66 -2.053)"/></g><g transform="translate(8.965)"><path class="a" d="M28.6,0V3.345a3.323,3.323,0,1,1,6.645,0,3.323,3.323,0,1,1-6.645,0V6.691h6.614V0Z" transform="translate(-28.6)"/><path class="a" d="M33.982,7.8A2.4,2.4,0,1,0,31.6,5.4,2.389,2.389,0,0,0,33.982,7.8Z" transform="translate(-30.66 -2.053)"/></g><g transform="translate(0.188 44.438)"><path class="a" d="M.6,147.491H3.923a3.346,3.346,0,1,1,3.323-3.346,3.336,3.336,0,0,1-3.323,3.346H7.245v-6.659H.6Z" transform="translate(-0.6 -140.8)"/><path class="a" d="M5.982,143.8a2.4,2.4,0,1,0,2.382,2.4,2.389,2.389,0,0,0-2.382-2.4Z" transform="translate(-2.66 -142.853)"/><path class="a" d="M112.6,140.9v3.345a3.323,3.323,0,1,1,3.323,3.345,3.336,3.336,0,0,1-3.323-3.345v3.345h6.614v-6.659H112.6Z" transform="translate(-77.492 -140.868)"/><path class="a" d="M117.982,148.6a2.4,2.4,0,1,0-2.382-2.4,2.389,2.389,0,0,0,2.382,2.4Z" transform="translate(-79.552 -142.853)"/><path class="a" d="M84.6,144.145a3.323,3.323,0,1,1,3.323,3.346,3.336,3.336,0,0,1-3.323-3.346v3.346h6.614v-6.659H84.6v3.314Z" transform="translate(-58.269 -140.8)"/><path class="a" d="M89.982,148.6a2.4,2.4,0,1,0-2.382-2.4A2.389,2.389,0,0,0,89.982,148.6Z" transform="translate(-60.329 -142.853)"/><path class="a" d="M56.6,144.145a3.323,3.323,0,1,1,3.323,3.346,3.336,3.336,0,0,1-3.323-3.346v3.346h6.614v-6.659H56.6v3.314Z" transform="translate(-39.046 -140.8)"/><path class="a" d="M61.982,148.6a2.4,2.4,0,1,0-2.382-2.4A2.389,2.389,0,0,0,61.982,148.6Z" transform="translate(-41.106 -142.853)"/><path class="a" d="M28.6,144.145a3.323,3.323,0,1,1,3.323,3.346,3.336,3.336,0,0,1-3.323-3.346v3.346h6.614v-6.659H28.6v3.314Z" transform="translate(-19.823 -140.8)"/><path class="a" d="M33.982,148.6a2.4,2.4,0,1,0-2.382-2.4A2.389,2.389,0,0,0,33.982,148.6Z" transform="translate(-21.883 -142.853)"/></g><g transform="translate(26.519)"><path class="a" d="M112.6,3.345a3.323,3.323,0,1,1,6.645,0,3.323,3.323,0,1,1-6.645,0V6.691h6.614V0H112.6V3.345Z" transform="translate(-103.823)"/><path class="a" d="M117.982,7.8A2.4,2.4,0,1,0,115.6,5.4a2.389,2.389,0,0,0,2.382,2.4Z" transform="translate(-105.883 -2.053)"/><path class="a" d="M84.6,3.345a3.323,3.323,0,1,1,6.645,0,3.323,3.323,0,1,1-6.645,0V6.691h6.614V0H84.6Z" transform="translate(-84.6)"/><path class="a" d="M89.982,7.8A2.4,2.4,0,1,0,87.6,5.4,2.389,2.389,0,0,0,89.982,7.8Z" transform="translate(-86.66 -2.053)"/><path class="a" d="M140.6,0V6.659h3.323a3.33,3.33,0,1,1,3.323-3.314,3.316,3.316,0,0,1-3.323,3.345h3.323V0h-6.614Z" transform="translate(-123.046)"/><path class="a" d="M145.982,3a2.4,2.4,0,1,0,2.382,2.4A2.389,2.389,0,0,0,145.982,3Z" transform="translate(-125.106 -2.053)"/></g><g transform="translate(43.884 8.9)"><path class="a" d="M140,31.545a3.323,3.323,0,1,1,3.323,3.346h3.323V28.2h-6.614v6.659h3.323a3.336,3.336,0,0,1-3.323-3.345Z" transform="translate(-140 -28.2)"/><path class="a" d="M145.382,31.1a2.4,2.4,0,1,0,2.382,2.4A2.389,2.389,0,0,0,145.382,31.1Z" transform="translate(-142.06 -30.185)"/><path class="a" d="M140,59.645a3.323,3.323,0,1,1,3.323,3.346h3.323V56.332h-6.614v6.659h3.323a3.336,3.336,0,0,1-3.323-3.346Z" transform="translate(-140 -47.431)"/><path class="a" d="M145.382,59.3a2.4,2.4,0,1,0,2.382,2.4A2.389,2.389,0,0,0,145.382,59.3Z" transform="translate(-142.06 -49.484)"/><path class="a" d="M140,87.845a3.323,3.323,0,1,1,3.323,3.346h3.323V84.532h-6.614v6.659h3.323a3.336,3.336,0,0,1-3.323-3.346Z" transform="translate(-140 -66.731)"/><path class="a" d="M145.382,87.5a2.4,2.4,0,1,0,2.382,2.4A2.389,2.389,0,0,0,145.382,87.5Z" transform="translate(-142.06 -68.784)"/><path class="a" d="M140,116.045a3.323,3.323,0,1,1,3.323,3.345h3.323v-6.659h-6.614v6.659h3.323a3.336,3.336,0,0,1-3.323-3.345Z" transform="translate(-140 -86.031)"/><path class="a" d="M145.382,115.7a2.4,2.4,0,1,0,2.382,2.4A2.389,2.389,0,0,0,145.382,115.7Z" transform="translate(-142.06 -88.084)"/><path class="a" d="M140.6,140.832v6.659h3.323a3.346,3.346,0,1,1,3.323-3.346,3.336,3.336,0,0,1-3.323,3.346h3.323v-6.659H140.6Z" transform="translate(-140.412 -105.262)"/><path class="a" d="M145.982,143.8a2.4,2.4,0,1,0,2.382,2.4A2.389,2.389,0,0,0,145.982,143.8Z" transform="translate(-142.472 -107.315)"/></g><g transform="translate(12.989 12.876)"><ellipse class="a" cx="4.329" cy="2.519" rx="4.329" ry="2.519" transform="translate(11.332 20.984) rotate(-25)"/><ellipse class="a" cx="4.329" cy="2.519" rx="4.329" ry="2.519" transform="translate(3.32 3.674) rotate(-25)"/><ellipse class="a" cx="2.519" cy="4.336" rx="2.519" ry="4.336" transform="matrix(0.574, -0.819, 0.819, 0.574, 12.769, 4.492)"/><ellipse class="a" cx="4.354" cy="2.505" rx="4.354" ry="2.505" transform="translate(0 16.064) rotate(-85)"/><ellipse class="a" cx="4.354" cy="2.505" rx="4.354" ry="2.505" transform="translate(18.916 17.734) rotate(-85)"/><ellipse class="a" cx="2.519" cy="4.336" rx="2.519" ry="4.336" transform="matrix(0.574, -0.819, 0.819, 0.574, 1.944, 20.162)"/></g></svg>