<svg xmlns="http://www.w3.org/2000/svg" xmlns:xlink="http://www.w3.org/1999/xlink" width="40.875" height="33.198" viewBox="0 0 40.875 33.198">
  <defs>
    <linearGradient id="linear-gradient" x1="0.117" x2="1.182" gradientUnits="objectBoundingBox">
      <stop offset="0" stop-color="#c00f83"/>
      <stop offset="1" stop-color="#2272ec"/>
    </linearGradient>
  </defs>
  <path id="Icon_awesome-twitter" data-name="Icon awesome-twitter" d="M36.674,11.654c.026.363.026.726.026,1.089,0,11.075-8.429,23.835-23.835,23.835A23.674,23.674,0,0,1,0,32.818a17.331,17.331,0,0,0,2.023.1,16.777,16.777,0,0,0,10.4-3.579,8.392,8.392,0,0,1-7.833-5.81,10.565,10.565,0,0,0,1.582.13,8.86,8.86,0,0,0,2.2-.285A8.379,8.379,0,0,1,1.66,15.156v-.1a8.437,8.437,0,0,0,3.787,1.063,8.39,8.39,0,0,1-2.594-11.2,23.812,23.812,0,0,0,17.273,8.766,9.457,9.457,0,0,1-.207-1.919,8.385,8.385,0,0,1,14.5-5.732A16.493,16.493,0,0,0,39.734,4,8.355,8.355,0,0,1,36.051,8.62a16.794,16.794,0,0,0,4.824-1.3,18.008,18.008,0,0,1-4.2,4.331Z" transform="translate(0 -3.381)" fill="url(#linear-gradient)"/>
</svg>
